<?xml version="1.0" standalone="no"?>
<!DOCTYPE svg PUBLIC "-//W3C//DTD SVG 20010904//EN"
 "http://www.w3.org/TR/2001/REC-SVG-20010904/DTD/svg10.dtd">
<svg version="1.0" xmlns="http://www.w3.org/2000/svg"
 width="200.000000pt" height="200.000000pt" viewBox="0 0 200.000000 200.000000"
 preserveAspectRatio="xMidYMid meet">
<metadata>
Created by potrace 1.16, written by Peter Selinger 2001-2019
</metadata>
<g transform="translate(0.000000,200.000000) scale(0.100000,-0.100000)"
fill="#000000" stroke="none">
<path d="M654 1670 c-70 -8 -114 -31 -138 -71 -15 -26 -17 -64 -16 -337 1
-169 0 -314 -1 -322 -2 -8 -6 131 -9 310 -6 321 -6 320 -5 -105 1 -335 4 -438
15 -467 7 -21 17 -35 21 -32 5 3 6 -2 3 -11 -9 -22 66 -143 123 -196 59 -56
138 -111 184 -128 19 -7 48 -19 66 -26 49 -22 495 -24 543 -3 51 22 79 57 89
114 12 65 1 121 -37 175 -41 61 -54 70 -104 75 l-43 3 38 -8 c21 -4 43 -14 50
-21 10 -10 8 -10 -10 -1 -14 7 -98 11 -237 11 -200 0 -220 2 -261 21 -25 12
-44 24 -41 26 2 2 18 -3 36 -12 17 -9 37 -14 43 -11 7 2 5 5 -5 5 -9 1 -30 12
-46 26 -34 29 -52 90 -52 179 0 94 -11 91 299 93 305 2 316 5 351 73 39 77 36
168 -9 223 -26 33 -75 77 -85 77 -5 0 -1 -7 10 -15 18 -14 17 -14 -9 -5 -16 6
-142 10 -295 10 -147 0 -277 3 -289 6 -34 9 -28 21 8 16 22 -3 30 -1 25 7 -4
6 -11 58 -15 115 -7 86 -13 110 -34 141 -26 38 -73 76 -92 74 -5 -1 -37 -5
-71 -9z"/>
</g>
</svg>
